# xmcd CD database file
#
# Track frame offsets:
#	150
#	12508
#	18997
#	28811
#	37035
#	53172
#	66335
#	79630
#	86781
#	116399
#
# Disc length: 4438 seconds
#
# Revision: 1
# Processed by: cddbd v1.5.2PL0 Copyright (c) Steve Scherf et al.
# Submitted via: CDex 1.70beta2
#
DISCID=7d11540a
DTITLE=Zimbl - Zimbl we hope the angels let you rock - CD 3 Message from the Underground "ich glaubs net"
DYEAR=2007
DGENRE=Blues
TTITLE0=Hurt (Live in Ulm (4.12.2004 Ka's Party))
TTITLE1=Insane (Live in Ulm (4.12.2004 Ka's Party))
TTITLE2=Das schöne Mädchen (Live in Ulm (4.12.2004 Ka's Party))
TTITLE3=The Letter (Live in Ulm (4.12.2004 Ka's Party))
TTITLE4=Geschwisterliebe (Live in Ulm (4.12.2004 Ka's Party))
TTITLE5=Hey Hey My My (Live in Ulm (4.12.2004 Ka's Party))
TTITLE6=Crazee Now (Live in Ulm (4.12.2004 Ka's Party))
TTITLE7=Dinosaur (Live in Ulm (4.12.2004 Ka's Party))
TTITLE8=Donna Clara (Live in Ulm (4.12.2004 Ka's Party))
TTITLE9=Data Track
EXTD=YEAR: 2007
EXTT0=
EXTT1=
EXTT2=
EXTT3=
EXTT4=
EXTT5=
EXTT6=
EXTT7=
EXTT8=
EXTT9=
PLAYORDER=
